<svg width="110" height="36" viewBox="0 0 110 36" fill="none" xmlns="http://www.w3.org/2000/svg">
<path d="M14.7237 8.864C14.6266 8.864 14.5781 8.864 14.566 8.89315C14.554 8.9223 14.5883 8.95661 14.6569 9.02522L27.3653 21.7336C27.4745 21.8428 27.5291 21.8974 27.5578 21.9668C27.5866 22.0363 27.5866 22.1135 27.5866 22.2679V27.1353C27.5866 27.3293 27.5866 27.4264 27.5283 27.4505C27.47 27.4747 27.4014 27.4061 27.2641 27.2688L6.71697 6.72168C6.60778 6.61249 6.55319 6.55789 6.52443 6.48847C6.49567 6.41904 6.49567 6.34184 6.49567 6.18742L6.49567 1.32003C6.49567 1.12596 6.49567 1.02892 6.55398 1.00477C6.61228 0.98062 6.68089 1.04924 6.81813 1.18647L13.0134 7.38179C13.0271 7.39544 13.0339 7.40226 13.0426 7.40586C13.0513 7.40945 13.0609 7.40945 13.0802 7.40945L20.2747 7.40938C20.294 7.40938 20.3037 7.40938 20.3124 7.41298C20.321 7.41657 20.3279 7.42339 20.3415 7.43704L27.3653 14.4608C27.4745 14.57 27.5291 14.6246 27.5985 14.6534C27.6679 14.6821 27.7451 14.6821 27.8995 14.6821L28.4897 14.6822C28.6441 14.6822 28.7213 14.6822 28.7907 14.7109C28.8601 14.7397 28.9147 14.7943 29.0239 14.9035L29.9347 15.8143C30.0719 15.9515 30.1405 16.0201 30.1164 16.0784C30.0922 16.1367 29.9952 16.1367 29.8011 16.1367H23.7178C23.5634 16.1367 23.4862 16.1367 23.4168 16.108C23.3473 16.0792 23.2927 16.0246 23.1836 15.9154L16.1598 8.89166C16.1461 8.87801 16.1393 8.87119 16.1306 8.86759C16.1219 8.864 16.1123 8.864 16.093 8.864H14.7237Z" fill="white"/>
<path d="M14.7237 8.864C14.6266 8.864 14.5781 8.864 14.566 8.89315C14.554 8.9223 14.5883 8.95661 14.6569 9.02522L27.3653 21.7336C27.4745 21.8428 27.5291 21.8974 27.5578 21.9668C27.5866 22.0363 27.5866 22.1135 27.5866 22.2679V27.1353C27.5866 27.3293 27.5866 27.4264 27.5283 27.4505C27.47 27.4747 27.4014 27.4061 27.2641 27.2688L6.71697 6.72168C6.60778 6.61249 6.55319 6.55789 6.52443 6.48847C6.49567 6.41904 6.49567 6.34184 6.49567 6.18742L6.49567 1.32003C6.49567 1.12596 6.49567 1.02892 6.55398 1.00477C6.61228 0.98062 6.68089 1.04924 6.81813 1.18647L13.0134 7.38179C13.0271 7.39544 13.0339 7.40226 13.0426 7.40586C13.0513 7.40945 13.0609 7.40945 13.0802 7.40945L20.2747 7.40938C20.294 7.40938 20.3037 7.40938 20.3124 7.41298C20.321 7.41657 20.3279 7.42339 20.3415 7.43704L27.3653 14.4608C27.4745 14.57 27.5291 14.6246 27.5985 14.6534C27.6679 14.6821 27.7451 14.6821 27.8995 14.6821L28.4897 14.6822C28.6441 14.6822 28.7213 14.6822 28.7907 14.7109C28.8601 14.7397 28.9147 14.7943 29.0239 14.9035L29.9347 15.8143C30.0719 15.9515 30.1405 16.0201 30.1164 16.0784C30.0922 16.1367 29.9952 16.1367 29.8011 16.1367H23.7178C23.5634 16.1367 23.4862 16.1367 23.4168 16.108C23.3473 16.0792 23.2927 16.0246 23.1836 15.9154L16.1598 8.89166C16.1461 8.87801 16.1393 8.87119 16.1306 8.86759C16.1219 8.864 16.1123 8.864 16.093 8.864H14.7237Z" fill="url(#paint0_linear_608_9)"/>
<path d="M14.7237 8.864C14.6266 8.864 14.5781 8.864 14.566 8.89315C14.554 8.9223 14.5883 8.95661 14.6569 9.02522L27.3653 21.7336C27.4745 21.8428 27.5291 21.8974 27.5578 21.9668C27.5866 22.0363 27.5866 22.1135 27.5866 22.2679V27.1353C27.5866 27.3293 27.5866 27.4264 27.5283 27.4505C27.47 27.4747 27.4014 27.4061 27.2641 27.2688L6.71697 6.72168C6.60778 6.61249 6.55319 6.55789 6.52443 6.48847C6.49567 6.41904 6.49567 6.34184 6.49567 6.18742L6.49567 1.32003C6.49567 1.12596 6.49567 1.02892 6.55398 1.00477C6.61228 0.98062 6.68089 1.04924 6.81813 1.18647L13.0134 7.38179C13.0271 7.39544 13.0339 7.40226 13.0426 7.40586C13.0513 7.40945 13.0609 7.40945 13.0802 7.40945L20.2747 7.40938C20.294 7.40938 20.3037 7.40938 20.3124 7.41298C20.321 7.41657 20.3279 7.42339 20.3415 7.43704L27.3653 14.4608C27.4745 14.57 27.5291 14.6246 27.5985 14.6534C27.6679 14.6821 27.7451 14.6821 27.8995 14.6821L28.4897 14.6822C28.6441 14.6822 28.7213 14.6822 28.7907 14.7109C28.8601 14.7397 28.9147 14.7943 29.0239 14.9035L29.9347 15.8143C30.0719 15.9515 30.1405 16.0201 30.1164 16.0784C30.0922 16.1367 29.9952 16.1367 29.8011 16.1367H23.7178C23.5634 16.1367 23.4862 16.1367 23.4168 16.108C23.3473 16.0792 23.2927 16.0246 23.1836 15.9154L16.1598 8.89166C16.1461 8.87801 16.1393 8.87119 16.1306 8.86759C16.1219 8.864 16.1123 8.864 16.093 8.864H14.7237Z" fill="#0057FF" fill-opacity="0.2"/>
<path d="M6.49567 8.59276C6.49567 8.39868 6.49567 8.30164 6.55398 8.27749C6.61228 8.25335 6.6809 8.32196 6.81813 8.4592L27.3653 29.0064C27.4745 29.1155 27.5291 29.1701 27.5578 29.2396C27.5866 29.309 27.5866 29.3862 27.5866 29.5406V34.408C27.5866 34.6021 27.5866 34.6991 27.5283 34.7233C27.47 34.7474 27.4014 34.6788 27.2641 34.5416L21.0687 28.3461C21.055 28.3325 21.0482 28.3256 21.0395 28.322C21.0309 28.3185 21.0212 28.3185 21.0019 28.3185L13.8075 28.3185C13.7882 28.3185 13.7786 28.3185 13.7699 28.3149C13.7612 28.3113 13.7544 28.3045 13.7407 28.2908L6.71697 21.267C6.60778 21.1579 6.55319 21.1033 6.48376 21.0745C6.41434 21.0457 6.33713 21.0457 6.18271 21.0457L5.63152 21.0457C5.47711 21.0457 5.3999 21.0457 5.33047 21.017C5.26105 20.9882 5.20645 20.9336 5.09727 20.8244L4.18647 19.9137C4.04924 19.7764 3.98062 19.7078 4.00477 19.6495C4.02892 19.5912 4.12596 19.5912 4.32003 19.5912H10.3645C10.5189 19.5912 10.5962 19.5912 10.6656 19.62C10.735 19.6487 10.7896 19.7033 10.8988 19.8125L17.9225 26.8362C17.9362 26.8499 17.943 26.8567 17.9517 26.8603C17.9604 26.8639 17.97 26.8639 17.9893 26.8639H19.3585C19.4555 26.8639 19.504 26.8639 19.5161 26.8348C19.5282 26.8056 19.4939 26.7713 19.4253 26.7027L6.71697 13.9944C6.60778 13.8852 6.55319 13.8306 6.52443 13.7612C6.49567 13.6918 6.49567 13.6146 6.49567 13.4601L6.49567 8.59276Z" fill="white"/>
<path d="M6.49567 8.59276C6.49567 8.39868 6.49567 8.30164 6.55398 8.27749C6.61228 8.25335 6.6809 8.32196 6.81813 8.4592L27.3653 29.0064C27.4745 29.1155 27.5291 29.1701 27.5578 29.2396C27.5866 29.309 27.5866 29.3862 27.5866 29.5406V34.408C27.5866 34.6021 27.5866 34.6991 27.5283 34.7233C27.47 34.7474 27.4014 34.6788 27.2641 34.5416L21.0687 28.3461C21.055 28.3325 21.0482 28.3256 21.0395 28.322C21.0309 28.3185 21.0212 28.3185 21.0019 28.3185L13.8075 28.3185C13.7882 28.3185 13.7786 28.3185 13.7699 28.3149C13.7612 28.3113 13.7544 28.3045 13.7407 28.2908L6.71697 21.267C6.60778 21.1579 6.55319 21.1033 6.48376 21.0745C6.41434 21.0457 6.33713 21.0457 6.18271 21.0457L5.63152 21.0457C5.47711 21.0457 5.3999 21.0457 5.33047 21.017C5.26105 20.9882 5.20645 20.9336 5.09727 20.8244L4.18647 19.9137C4.04924 19.7764 3.98062 19.7078 4.00477 19.6495C4.02892 19.5912 4.12596 19.5912 4.32003 19.5912H10.3645C10.5189 19.5912 10.5962 19.5912 10.6656 19.62C10.735 19.6487 10.7896 19.7033 10.8988 19.8125L17.9225 26.8362C17.9362 26.8499 17.943 26.8567 17.9517 26.8603C17.9604 26.8639 17.97 26.8639 17.9893 26.8639H19.3585C19.4555 26.8639 19.504 26.8639 19.5161 26.8348C19.5282 26.8056 19.4939 26.7713 19.4253 26.7027L6.71697 13.9944C6.60778 13.8852 6.55319 13.8306 6.52443 13.7612C6.49567 13.6918 6.49567 13.6146 6.49567 13.4601L6.49567 8.59276Z" fill="url(#paint1_linear_608_9)"/>
<path d="M6.49567 8.59276C6.49567 8.39868 6.49567 8.30164 6.55398 8.27749C6.61228 8.25335 6.6809 8.32196 6.81813 8.4592L27.3653 29.0064C27.4745 29.1155 27.5291 29.1701 27.5578 29.2396C27.5866 29.309 27.5866 29.3862 27.5866 29.5406V34.408C27.5866 34.6021 27.5866 34.6991 27.5283 34.7233C27.47 34.7474 27.4014 34.6788 27.2641 34.5416L21.0687 28.3461C21.055 28.3325 21.0482 28.3256 21.0395 28.322C21.0309 28.3185 21.0212 28.3185 21.0019 28.3185L13.8075 28.3185C13.7882 28.3185 13.7786 28.3185 13.7699 28.3149C13.7612 28.3113 13.7544 28.3045 13.7407 28.2908L6.71697 21.267C6.60778 21.1579 6.55319 21.1033 6.48376 21.0745C6.41434 21.0457 6.33713 21.0457 6.18271 21.0457L5.63152 21.0457C5.47711 21.0457 5.3999 21.0457 5.33047 21.017C5.26105 20.9882 5.20645 20.9336 5.09727 20.8244L4.18647 19.9137C4.04924 19.7764 3.98062 19.7078 4.00477 19.6495C4.02892 19.5912 4.12596 19.5912 4.32003 19.5912H10.3645C10.5189 19.5912 10.5962 19.5912 10.6656 19.62C10.735 19.6487 10.7896 19.7033 10.8988 19.8125L17.9225 26.8362C17.9362 26.8499 17.943 26.8567 17.9517 26.8603C17.9604 26.8639 17.97 26.8639 17.9893 26.8639H19.3585C19.4555 26.8639 19.504 26.8639 19.5161 26.8348C19.5282 26.8056 19.4939 26.7713 19.4253 26.7027L6.71697 13.9944C6.60778 13.8852 6.55319 13.8306 6.52443 13.7612C6.49567 13.6918 6.49567 13.6146 6.49567 13.4601L6.49567 8.59276Z" fill="#0057FF" fill-opacity="0.2"/>
<path d="M47.3445 27.104C46.0645 27.104 44.9645 26.804 44.0445 26.204C43.1379 25.5907 42.5045 24.7507 42.1445 23.684L43.3445 22.984C43.5979 23.8507 44.0645 24.5307 44.7445 25.024C45.4245 25.504 46.2979 25.744 47.3645 25.744C48.4045 25.744 49.2112 25.5174 49.7845 25.064C50.3712 24.5974 50.6645 23.984 50.6645 23.224C50.6645 22.4907 50.3979 21.9374 49.8645 21.564C49.3312 21.1907 48.4512 20.804 47.2245 20.404C45.7712 19.924 44.8112 19.5374 44.3445 19.244C43.2779 18.604 42.7445 17.6774 42.7445 16.464C42.7445 15.2774 43.1579 14.344 43.9845 13.664C44.8112 12.9707 45.8312 12.624 47.0445 12.624C48.1379 12.624 49.0845 12.9107 49.8845 13.484C50.6845 14.044 51.2779 14.764 51.6645 15.644L50.4845 16.304C49.8445 14.7574 48.6979 13.984 47.0445 13.984C46.1779 13.984 45.4779 14.1974 44.9445 14.624C44.4112 15.0507 44.1445 15.644 44.1445 16.404C44.1445 17.0974 44.3845 17.6174 44.8645 17.964C45.3445 18.3107 46.1379 18.664 47.2445 19.024C47.7512 19.1974 48.1112 19.324 48.3245 19.404C48.5512 19.4707 48.8712 19.5907 49.2845 19.764C49.7112 19.924 50.0245 20.0707 50.2245 20.204C50.4245 20.324 50.6645 20.4974 50.9445 20.724C51.2379 20.9374 51.4445 21.1574 51.5645 21.384C51.6979 21.5974 51.8112 21.864 51.9045 22.184C52.0112 22.4907 52.0645 22.824 52.0645 23.184C52.0645 24.3707 51.6312 25.324 50.7645 26.044C49.8979 26.7507 48.7579 27.104 47.3445 27.104Z" fill="white"/>
<path d="M63.3703 12.864C64.6236 12.864 65.6703 13.284 66.5103 14.124C67.3503 14.964 67.7703 16.0107 67.7703 17.264C67.7703 18.5174 67.3503 19.564 66.5103 20.404C65.6703 21.244 64.6236 21.664 63.3703 21.664H59.7703V26.864H58.3703V12.864H63.3703ZM63.3703 20.344C64.237 20.344 64.9503 20.0574 65.5103 19.484C66.0836 18.8974 66.3703 18.1574 66.3703 17.264C66.3703 16.3707 66.0836 15.6374 65.5103 15.064C64.9503 14.4774 64.237 14.184 63.3703 14.184H59.7703V20.344H63.3703Z" fill="white"/>
<path d="M74.1672 12.864H75.5672V26.864H74.1672V12.864Z" fill="white"/>
<path d="M92.5766 26.864H90.7366L84.1766 20.084V26.864H82.7766V12.864H84.1766V19.264L90.5366 12.864H92.3766L85.6566 19.664L92.5766 26.864Z" fill="white"/>
<path d="M99.7781 25.544H106.578V26.864H98.3781V12.864H106.478V14.184H99.7781V19.144H105.978V20.464H99.7781V25.544Z" fill="white"/>
<defs>
<linearGradient id="paint0_linear_608_9" x1="17.0608" y1="0.864258" x2="17.0608" y2="34.8643" gradientUnits="userSpaceOnUse">
<stop stop-color="#00FFFF"/>
<stop offset="0.498239" stop-color="#2E75FF"/>
<stop offset="1" stop-color="#7000FF"/>
</linearGradient>
<linearGradient id="paint1_linear_608_9" x1="17.0608" y1="0.864258" x2="17.0608" y2="34.8643" gradientUnits="userSpaceOnUse">
<stop stop-color="#00FFFF"/>
<stop offset="0.498239" stop-color="#2E75FF"/>
<stop offset="1" stop-color="#7000FF"/>
</linearGradient>
</defs>
</svg>
